# xmcd
#
# Track frame offsets: 
#        150
#        15679
#        30242
#        51541
#        72262
#        90184
#        102534
#        126742
#        143523
#        159901
#        176118
#        192145
#        210299
#        234883
#
# Disc length: 3299 seconds
#
# Revision: 0
# Processed by: cddbd v1.5.2PL0 Copyright (c) Steve Scherf et al.
# Submitted via: ExactAudioCopy v0.95b4
#
DISCID=b30ce10e
DTITLE=Johnny Einter - Hey, Where's Your Brother?
DYEAR=1900
DGENRE=Blues
TTITLE0=01 - Johnny Guitar
TTITLE1=02 - She Likes To Boogie Real Low
TTITLE2=03 - White Line Blues
TTITLE3=04 - Please Come Home For Christmas
TTITLE4=05 - Hard Way
TTITLE5=06 - You Must Have A Twin
TTITLE6=07 - You Keep Sayin' That You're Leavin'
TTITLE7=08 - Treat Me Like You Wanta
TTITLE8=09 - Sick And Tired
TTITLE9=10 - Blues This Bad
TTITLE10=11 - No More Doggin'
TTITLE11=12 - Check Out Her Mama
TTITLE12=13 - Got My Brand On You
TTITLE13=14 - One Step Froeward (Theo Steps Back)
EXTD=
EXTT0=
EXTT1=
EXTT2=
EXTT3=
EXTT4=
EXTT5=
EXTT6=
EXTT7=
EXTT8=
EXTT9=
EXTT10=
EXTT11=
EXTT12=
EXTT13=
PLAYORDER=
